<svg xmlns="http://www.w3.org/2000/svg" xmlns:xlink="http://www.w3.org/1999/xlink" version="1.1" style="enable-background:new 0 0 512 512;" xml:space="preserve" width="512" height="512"><rect id="backgroundrect" width="100%" height="100%" x="0" y="0" fill="none" stroke="none"/>























<g class="currentLayer" style=""><title>Layer 1</title><g id="svg_1" class="" fill="#ffffff" fill-opacity="1">
	<g id="svg_2" fill="#ffffff" fill-opacity="1">
		<path d="M453.92,353.792c-23.893-15.925-117.92-52.309-144.587-62.485v-6.859c39.733-18.848,64-72.181,64-113.781v-64    C373.333,58.357,325.76,0,266.667,0h-21.333C186.24,0,138.667,58.357,138.667,106.667v64c0,41.6,24.267,94.933,64,113.781v6.859    C176,301.483,81.973,337.867,58.08,353.792C36.557,367.429,22.889,390.568,21.333,416v96h21.333v-96    c1.552-18.276,11.648-34.743,27.232-44.416c20.267-13.547,105.152-47.093,147.2-62.933c4.154-1.567,6.903-5.544,6.901-9.984    v-21.333c0.002-4.519-2.844-8.549-7.104-10.059C183.36,255.403,160,206.837,160,170.667v-64c0-38.4,39.371-85.333,85.333-85.333    h21.333c45.963,0,85.333,46.933,85.333,85.333v64c0,36.171-23.36,84.736-56.896,96.608c-4.26,1.509-7.106,5.539-7.104,10.059    v21.333c0.013,4.419,2.749,8.373,6.88,9.941c33.835,12.8,126.197,48.928,147.2,62.933c15.597,9.683,25.701,26.166,27.253,44.459    v96h21.333v-96C489.111,390.568,475.443,367.429,453.92,353.792z" id="svg_3" fill="#ffffff" fill-opacity="1"/>
	</g>
</g><g id="svg_4" class="" fill="#ffffff" fill-opacity="1">
	<g id="svg_5" fill="#ffffff" fill-opacity="1">
		<rect x="106.66699981689453" y="416" width="21.33300018310547" height="96" id="svg_6" fill="#ffffff" fill-opacity="1"/>
	</g>
</g><g id="svg_7" class="" fill="#ffffff" fill-opacity="1">
	<g id="svg_8" fill="#ffffff" fill-opacity="1">
		<rect x="384" y="416" width="21.33300018310547" height="96" id="svg_9" fill="#ffffff" fill-opacity="1"/>
	</g>
</g><g id="svg_10" class="" fill="#ffffff" fill-opacity="1">
	<g id="svg_11" fill="#ffffff" fill-opacity="1">
		<path d="M256.011,64.011c-29.455-0.006-53.338,23.867-53.344,53.322H224c0-17.673,14.327-32,32-32s32,14.327,32,32    c0,17.673-14.327,32-32,32c-5.891,0-10.667,4.776-10.667,10.667v32h21.333v-22.4c24.828-5.068,42.661-26.905,42.667-52.245    C309.339,87.9,285.466,64.017,256.011,64.011z" id="svg_12" fill="#ffffff" fill-opacity="1"/>
	</g>
</g><g id="svg_13" class="" fill="#ffffff" fill-opacity="1">
	<g id="svg_14" fill="#ffffff" fill-opacity="1">
		<rect x="245.33299255371094" y="213.33299255371094" width="21.33300018310547" height="21.33300018310547" id="svg_15" fill="#ffffff" fill-opacity="1"/>
	</g>
</g><g id="svg_16" class="" fill="#ffffff" fill-opacity="1">
	<g id="svg_17" fill="#ffffff" fill-opacity="1">
		<rect x="245.33299255371094" y="416" width="21.33300018310547" height="21.33300018310547" id="svg_18" fill="#ffffff" fill-opacity="1"/>
	</g>
</g><g id="svg_19" class="" fill="#ffffff" fill-opacity="1">
	<g id="svg_20" fill="#ffffff" fill-opacity="1">
		<rect x="288" y="416" width="21.33300018310547" height="21.33300018310547" id="svg_21" fill="#ffffff" fill-opacity="1"/>
	</g>
</g><g id="svg_22" class="" fill="#ffffff" fill-opacity="1">
	<g id="svg_23" fill="#ffffff" fill-opacity="1">
		<rect x="202.66700744628906" y="416" width="21.33300018310547" height="21.33300018310547" id="svg_24" fill="#ffffff" fill-opacity="1"/>
	</g>
</g><g id="svg_25">
</g><g id="svg_26">
</g><g id="svg_27">
</g><g id="svg_28">
</g><g id="svg_29">
</g><g id="svg_30">
</g><g id="svg_31">
</g><g id="svg_32">
</g><g id="svg_33">
</g><g id="svg_34">
</g><g id="svg_35">
</g><g id="svg_36">
</g><g id="svg_37">
</g><g id="svg_38">
</g><g id="svg_39">
</g></g></svg>