<svg xmlns="http://www.w3.org/2000/svg" xmlns:xlink="http://www.w3.org/1999/xlink" version="1.1" style="" xml:space="preserve" width="512" height="512"><rect id="backgroundrect" width="100%" height="100%" x="0" y="0" fill="none" stroke="none"/>

















<g class="currentLayer" style=""><title>Layer 1</title><g id="svg_1" class="" fill="#ffffff" fill-opacity="1">
	<g id="svg_2" fill="#ffffff" fill-opacity="1">
		<path d="M256.001,276.673c-28.017,0-50.81,22.793-50.81,50.81c0,13.895,5.775,27.33,15.858,36.891v45.875    c0,19.273,15.68,34.953,34.953,34.953s34.953-15.68,34.953-34.953v-45.875c10.078-9.555,15.857-22.993,15.857-36.891    C306.81,299.466,284.016,276.673,256.001,276.673z M273.979,346.558c-4.851,4.571-7.633,10.96-7.633,17.53v46.161    c0,5.705-4.64,10.345-10.345,10.345c-5.704,0-10.345-4.64-10.345-10.345v-46.161c0-6.569-2.782-12.957-7.63-17.527    c-5.307-5.003-8.229-11.778-8.229-19.078c0-14.447,11.755-26.202,26.202-26.202c14.447,0,26.202,11.755,26.202,26.202    C282.203,334.783,279.281,341.558,273.979,346.558z" id="svg_3" fill="#ffffff" fill-opacity="1"/>
	</g>
</g><g id="svg_4" class="" fill="#ffffff" fill-opacity="1">
	<g id="svg_5" fill="#ffffff" fill-opacity="1">
		<path d="M404.979,209.876h-36.908v-97.804C368.071,50.275,317.795,0,256.001,0C194.205,0,143.93,50.275,143.93,112.072v97.804    h-36.909c-20.353,0-36.911,16.559-36.911,36.911v228.301c0,20.353,16.558,36.911,36.911,36.911h297.958    c20.353,0,36.911-16.558,36.911-36.911V246.788C441.89,226.435,425.332,209.876,404.979,209.876z M168.536,112.072    c0-48.227,39.236-87.464,87.464-87.464c48.227,0,87.463,39.237,87.463,87.464v97.804H168.536V112.072z M417.283,475.089    L417.283,475.089c0,6.784-5.52,12.304-12.304,12.304H107.021c-6.784,0-12.304-5.519-12.304-12.304V246.788    c0-6.784,5.52-12.304,12.304-12.304h297.958c6.784,0,12.304,5.519,12.304,12.304V475.089z" id="svg_6" fill="#ffffff" fill-opacity="1"/>
	</g>
</g><g id="svg_7">
</g><g id="svg_8">
</g><g id="svg_9">
</g><g id="svg_10">
</g><g id="svg_11">
</g><g id="svg_12">
</g><g id="svg_13">
</g><g id="svg_14">
</g><g id="svg_15">
</g><g id="svg_16">
</g><g id="svg_17">
</g><g id="svg_18">
</g><g id="svg_19">
</g><g id="svg_20">
</g><g id="svg_21">
</g></g></svg>